<?xml version="1.0" encoding="UTF-8" standalone="no"?>
<!DOCTYPE svg PUBLIC "-//W3C//DTD SVG 1.1//EN" "http://www.w3.org/Graphics/SVG/1.1/DTD/svg11.dtd">
<svg width="100%" height="100%" viewBox="0 0 683 683" version="1.1" xmlns="http://www.w3.org/2000/svg" xmlns:xlink="http://www.w3.org/1999/xlink" xml:space="preserve" xmlns:serif="http://www.serif.com/" style="fill-rule:evenodd;clip-rule:evenodd;stroke-linejoin:round;stroke-miterlimit:2;">
    <g transform="matrix(1.333333,0,0,1.333333,0,0)">
        <g id="mainframe" transform="matrix(0.886496,0,0,0.886496,10.440719,10.440719)">
            <path d="M554,56.124L554,497.876C554,528.852 528.852,554 497.876,554L56.124,554C25.148,554 0,528.852 0,497.876L0,56.124C0,25.148 25.148,0 56.124,0L497.876,0C528.852,0 554,25.148 554,56.124Z" style="fill:rgb(71,148,181);"/>
        </g>
        <g id="circle_hole" transform="matrix(0.763574,0,0,0.763574,44.489883,44.489883)">
            <circle cx="277" cy="277" r="277" style="fill:rgb(75,105,117);"/>
        </g>
        <g id="circle_corners" transform="matrix(0.920503,0,0,0.920503,1.020694,1.020694)">
            <g id="circle_corner" transform="matrix(0.090961,0,0,0.090961,38.865223,38.865223)">
                <circle cx="277" cy="277" r="277" style="fill:white;"/>
            </g>
            <g id="circle_corner1" serif:id="circle_corner" transform="matrix(0.090961,0,0,0.090961,464.742376,38.865223)">
                <circle cx="277" cy="277" r="277" style="fill:white;"/>
            </g>
            <g id="circle_corner2" serif:id="circle_corner" transform="matrix(0.090961,0,0,0.090961,38.865223,464.742376)">
                <circle cx="277" cy="277" r="277" style="fill:white;"/>
            </g>
            <g id="circle_corner3" serif:id="circle_corner" transform="matrix(0.090961,0,0,0.090961,464.742376,464.742376)">
                <circle cx="277" cy="277" r="277" style="fill:white;"/>
            </g>
        </g>
        <g id="wings" transform="matrix(0.920503,0,0,0.920503,1.020694,1.020694)">
            <g id="wing" transform="matrix(0.76221,0,0,0.76221,65.86789,65.86789)">
                <path d="M235.602,168.008C233.957,168.645 232.09,168.069 231.088,166.617C221.794,153.528 181.441,99.95 125.954,73.475C120.822,71.111 117.369,66.157 116.927,60.524C116.485,54.891 119.123,49.459 123.823,46.324C167.672,17.035 220.362,0 277,0C278.243,0 279.483,0.008 280.722,0.025C285.102,0.079 289.158,2.341 291.507,6.038C303.507,25.7 331.307,81.454 321.577,164.174C321.442,165.331 320.784,166.362 319.791,166.971C318.799,167.58 317.581,167.7 316.488,167.297C304.154,162.855 290.858,160.432 277,160.432C262.424,160.432 248.469,163.113 235.602,168.008Z" style="fill:white;"/>
            </g>
            <g id="wing1" serif:id="wing" transform="matrix(0.76221,0,0,0.76221,65.86789,65.86789)">
                <path d="M350.691,186.653C349.317,185.546 348.882,183.641 349.638,182.048C356.326,167.454 382.55,105.718 377.735,44.427C377.217,38.801 379.781,33.334 384.438,30.135C389.095,26.936 395.118,26.505 400.183,29.008C447.473,52.337 488.57,89.451 516.889,138.5C517.51,139.576 518.124,140.655 518.729,141.736C520.871,145.556 520.941,150.199 518.914,154.082C507.886,174.305 473.501,226.258 396.999,259.191C395.93,259.653 394.708,259.599 393.683,259.044C392.659,258.489 391.947,257.494 391.75,256.346C389.429,243.443 384.88,230.717 377.951,218.716C370.663,206.092 361.364,195.348 350.691,186.653Z" style="fill:white;"/>
            </g>
            <g id="wing2" serif:id="wing" transform="matrix(0.76221,0,0,0.76221,65.86789,65.86789)">
                <path d="M392.088,295.644C392.36,293.901 393.792,292.571 395.55,292.43C411.533,290.926 478.11,282.768 528.781,247.953C533.395,244.69 539.411,244.177 544.51,246.611C549.61,249.044 552.995,254.045 553.36,259.683C556.8,312.302 545.208,366.45 516.889,415.5C516.268,416.576 515.64,417.646 515.007,418.711C512.77,422.476 508.783,424.858 504.407,425.044C481.38,425.606 419.194,421.804 352.422,372.018C351.488,371.323 350.924,370.237 350.893,369.073C350.861,367.909 351.366,366.794 352.262,366.05C362.276,357.588 371.022,347.285 377.951,335.284C385.239,322.661 389.895,309.235 392.088,295.644Z" style="fill:white;"/>
            </g>
            <g id="wing3" serif:id="wing" transform="matrix(0.76221,0,0,0.76221,65.86789,65.86789)">
                <path d="M318.398,385.992C320.043,385.355 321.91,385.931 322.912,387.383C332.206,400.472 372.559,454.05 428.046,480.525C433.178,482.889 436.631,487.843 437.073,493.476C437.515,499.109 434.877,504.541 430.177,507.676C386.328,536.965 333.638,554 277,554C275.757,554 274.517,553.992 273.278,553.975C268.898,553.921 264.842,551.659 262.493,547.962C250.493,528.3 222.693,472.546 232.423,389.826C232.558,388.669 233.216,387.638 234.209,387.029C235.201,386.42 236.419,386.3 237.512,386.703C249.846,391.145 263.142,393.568 277,393.568C291.576,393.568 305.531,390.887 318.398,385.992Z" style="fill:white;"/>
            </g>
            <g id="wing4" serif:id="wing" transform="matrix(0.76221,0,0,0.76221,65.86789,65.86789)">
                <path d="M203.309,367.347C204.683,368.454 205.118,370.359 204.362,371.952C197.674,386.546 171.45,448.282 176.265,509.573C176.783,515.199 174.219,520.666 169.562,523.865C164.905,527.064 158.882,527.495 153.817,524.992C106.527,501.663 65.43,464.549 37.111,415.5C36.49,414.424 35.876,413.345 35.271,412.264C33.129,408.444 33.059,403.801 35.086,399.918C46.114,379.695 80.499,327.742 157.001,294.809C158.07,294.347 159.292,294.401 160.317,294.956C161.341,295.511 162.053,296.506 162.25,297.654C164.571,310.557 169.12,323.283 176.049,335.284C183.337,347.908 192.636,358.652 203.309,367.347Z" style="fill:white;"/>
            </g>
            <g id="wing5" serif:id="wing" transform="matrix(0.76221,0,0,0.76221,65.86789,65.86789)">
                <path d="M161.912,258.356C161.64,260.099 160.208,261.429 158.45,261.57C142.467,263.074 75.89,271.232 25.219,306.047C20.605,309.31 14.589,309.823 9.49,307.389C4.39,304.956 1.005,299.955 0.64,294.317C-2.8,241.698 8.792,187.55 37.111,138.5C37.732,137.424 38.36,136.354 38.993,135.289C41.23,131.524 45.217,129.142 49.593,128.956C72.62,128.394 134.806,132.196 201.578,181.982C202.512,182.677 203.076,183.763 203.107,184.927C203.139,186.091 202.634,187.206 201.738,187.95C191.724,196.412 182.978,206.715 176.049,218.716C168.761,231.339 164.105,244.765 161.912,258.356Z" style="fill:white;"/>
            </g>
        </g>
        <g id="circle_center" transform="matrix(0.219387,0,0,0.219387,195.229838,195.229838)">
            <circle cx="277" cy="277" r="277" style="fill:white;"/>
        </g>
    </g>
</svg>
